<?xml version="1.0" encoding="utf-8"?>
<svg xmlns="http://www.w3.org/2000/svg" width="24" height="24" viewBox="0 0 24 24" fill="#cf3719"><path d="M 8.9257812 1.0019531 L 11.966797 5.328125 L 15.052734 1.0078125 L 8.9257812 1.0019531 z M 6.7871094 1.4375 C 4.6951094 2.1555 1.2665781 3.5304687 0.76757812 3.7304688 L -0.005859375 4.0429688 L 1.0058594 9 L 5 9 L 5 12 L 7 12 L 7 14 L 5 14 L 5 23 L 13 23 L 13 16 L 15 16 L 15 23 L 19 23 L 19 14 L 13 14 L 13 12 L 19 12 L 19 9 L 22.994141 9 L 24.005859 4.0429688 L 23.232422 3.7304688 C 22.431422 3.4084687 19.212172 2.1235 17.201172 1.4375 L 13.185547 7.0625 L 15 9.6445312 L 15 10 L 12.804688 10 L 6.7871094 1.4375 z M 9 12 L 11 12 L 11 19 L 9 19 L 9 12 z" fill="#cf3719"/></svg>
