<svg fill="#cf3719" xmlns="http://www.w3.org/2000/svg"  viewBox="0 0 128 128" width="20px" height="20px"><path d="M77 45c0-7.2-5.8-13-13-13s-13 5.8-13 13 5.8 13 13 13S77 52.2 77 45zM57 45c0-3.9 3.1-7 7-7s7 3.1 7 7-3.1 7-7 7S57 48.9 57 45zM124 121h-10.5C111.7 98.6 90.2 64 64 64s-47.7 34.6-49.5 57H4c-1.7 0-3 1.3-3 3s1.3 3 3 3h120c1.7 0 3-1.3 3-3S125.7 121 124 121zM38.3 102.4c-.8 1.4-1.5 2.7-2.1 4.1-.5 1.1-1.6 1.7-2.7 1.7-.4 0-.9-.1-1.3-.3-1.5-.7-2.1-2.5-1.4-4 .7-1.5 1.5-3 2.3-4.5.8-1.4 2.6-2 4.1-1.1C38.6 99.2 39.1 101 38.3 102.4zM59.1 81.9c-4.2 1.5-8.6 4.7-12.8 9.3-.6.7-1.4 1-2.2 1-.7 0-1.4-.3-2-.8-1.2-1.1-1.3-3-.2-4.2C46.7 81.8 52 78 57.1 76.2c1.6-.5 3.3.3 3.8 1.8S60.6 81.4 59.1 81.9z"/></svg>