<?xml version="1.0" encoding="utf-8"?>
<svg xmlns="http://www.w3.org/2000/svg" viewBox="0 0 24 24" fill="#cf3719"><path d="M 10 2 L 8.1875 2.40625 L 11 7 L 7 2.6875 C 5.898438 2.988281 5.007813 3.695313 4.40625 4.59375 L 2 10 L 5 12 L 6 10 L 6 12 L 12 12 L 12 8 L 13 8 L 13 12 L 18 12 L 18 10 L 19 12 L 22 10 L 19.59375 4.59375 C 18.992188 3.695313 18.101563 2.988281 17 2.6875 L 13 7 L 15.8125 2.40625 L 14 2 L 12 6 Z M 6 14 L 6 22 L 12 22 L 12 14 Z M 13 14 L 13 22 L 18 22 L 18 14 Z" fill="#cf3719"/></svg>
