<?xml version="1.0"?><svg fill="#aaa" xmlns="http://www.w3.org/2000/svg"  viewBox="0 0 50 50" width="24px" height="24px">    <path d="M 4.8457031 6 C 3.2757031 6 2 7.2757031 2 8.8457031 L 2 18 L 48 18 L 48 8.8457031 C 48 7.2757031 46.724297 6 45.154297 6 L 4.8457031 6 z M 8 10 C 9.104 10 10 10.895 10 12 C 10 13.104 9.104 14 8 14 C 6.896 14 6 13.104 6 12 C 6 10.895 6.896 10 8 10 z M 14 10 C 15.104 10 16 10.895 16 12 C 16 13.104 15.104 14 14 14 C 12.896 14 12 13.104 12 12 C 12 10.895 12.896 10 14 10 z M 19 10 L 43 10 L 43 14 L 19 14 L 19 10 z M 2 20 L 2 43 C 2 43.553 2.447 44 3 44 L 47 44 C 47.553 44 48 43.553 48 43 L 48 20 L 2 20 z M 13.970703 24 C 14.668703 24 15.207969 24.192266 15.417969 24.572266 C 16.353969 24.706266 16.768828 25.346047 16.923828 26.123047 C 16.979828 26.404047 17 26.702 17 27 C 17 27.649 16.868813 28.265375 16.757812 28.609375 C 16.866813 28.677375 17.045 28.89425 17 29.28125 C 16.917 30.00125 16.630219 30.183219 16.449219 30.199219 C 16.379219 30.870219 15.760297 31.666016 15.529297 31.791016 C 15.529297 32.270016 15.512594 32.635156 15.558594 33.160156 C 16.112594 34.694156 19.830953 34.264656 20.001953 37.222656 L 20.001953 38 L 20 38 L 8 38 L 8 37.222656 C 8.172 34.264656 11.904984 34.694156 12.458984 33.160156 C 12.504984 32.635156 12.488281 32.270016 12.488281 31.791016 C 12.257281 31.667016 11.620781 30.870219 11.550781 30.199219 C 11.369781 30.183219 11.085953 30.00125 11.001953 29.28125 C 10.956953 28.89425 11.135141 28.678375 11.244141 28.609375 C 11.103141 28.052375 10.997 27.508 11 27 C 11.002 26.693 11.03275 26.4 11.09375 26.125 C 11.37075 24.87 12.279703 24 13.970703 24 z M 26 26 L 42 26 L 42 28 L 26 28 L 26 26 z M 26 31 L 42 31 L 42 33 L 26 33 L 26 31 z M 26 36 L 39 36 L 39 38 L 26 38 L 26 36 z"/></svg>