<svg fill="#cf3719" xmlns="http://www.w3.org/2000/svg"  viewBox="0 0 48 48" width="48px" height="48px"><path d="M3,18.5v17C3,39.084,5.916,42,9.5,42h29c3.584,0,6.5-2.916,6.5-6.5v-25C45,8.019,42.981,6,40.5,6h-26	C12.019,6,10,8.019,10,10.5v24c0,0.828-0.672,1.5-1.5,1.5S7,35.328,7,34.5V14.051C4.756,14.303,3,16.19,3,18.5z M16,31.5	c0-0.828,0.671-1.5,1.5-1.5h7c0.829,0,1.5,0.672,1.5,1.5S25.329,33,24.5,33h-7C16.671,33,16,32.328,16,31.5z M16,24.5	c0-0.828,0.671-1.5,1.5-1.5h7c0.829,0,1.5,0.672,1.5,1.5S25.329,26,24.5,26h-7C16.671,26,16,25.328,16,24.5z M29,31.5	c0-0.828,0.671-1.5,1.5-1.5h7c0.829,0,1.5,0.672,1.5,1.5S38.329,33,37.5,33h-7C29.671,33,29,32.328,29,31.5z M29,24.5	c0-0.828,0.671-1.5,1.5-1.5h7c0.829,0,1.5,0.672,1.5,1.5S38.329,26,37.5,26h-7C29.671,26,29,25.328,29,24.5z M16,16.5	c0-0.828,0.671-1.5,1.5-1.5h20c0.829,0,1.5,0.672,1.5,1.5S38.329,18,37.5,18h-20C16.671,18,16,17.328,16,16.5z"/></svg>