<?xml version="1.0"?><svg fill="#aaa" xmlns="http://www.w3.org/2000/svg"  viewBox="0 0 30 30" width="20px" height="20px">    <path d="M 13 4 A 1.0001 1.0001 0 1 0 13 6 L 13 14 C 13 14.552 13.448 15 14 15 L 26 15 C 26.552 15 27 14.552 27 14 L 27 6 A 1.0001 1.0001 0 1 0 27 4 L 13 4 z M 18 6 L 22 6 C 22.552 6 23 6.448 23 7 C 23 7.552 22.552 8 22 8 L 18 8 C 17.448 8 17 7.552 17 7 C 17 6.448 17.448 6 18 6 z M 8 15 A 3 3 0 0 0 6.8828125 15.216797 L 2 17 L 2 25 L 6.2207031 23.166016 C 6.7187031 22.950016 7.2821563 22.942438 7.7851562 23.148438 L 16.849609 26.851562 C 16.849609 26.851562 16.853494 26.851563 16.853516 26.851562 A 1.5 1.5 0 0 0 17.5 27 A 1.5 1.5 0 0 0 18.238281 26.802734 C 18.238413 26.802691 18.244057 26.802776 18.244141 26.802734 L 27.230469 21.810547 L 27.228516 21.808594 A 1.5 1.5 0 0 0 28 20.5 A 1.5 1.5 0 0 0 26.5 19 A 1.5 1.5 0 0 0 25.863281 19.144531 L 25.863281 19.142578 L 19 22 L 17.5 22 A 1.5 1.5 0 0 0 19 20.5 A 1.5 1.5 0 0 0 17.964844 19.074219 L 17.964844 19.072266 L 9.2714844 15.28125 L 9.2597656 15.28125 A 3 3 0 0 0 8 15 z"/></svg>