<?xml version="1.0" encoding="utf-8"?>
<svg xmlns="http://www.w3.org/2000/svg" viewBox="0 0 24 24" fill="#cf3719"><path d="M 4 4 C 2.897 4 2 4.897 2 6 L 2 18 C 2 19.103 2.897 20 4 20 L 4 21 L 6 21 L 6 20 L 18 20 L 18 21 L 20 21 L 20 20 C 21.103 20 22 19.103 22 18 L 22 6 C 22 4.897 21.103 4 20 4 L 4 4 z M 18.587891 6.9980469 L 20.001953 8.4121094 L 18.433594 9.9804688 C 18.785594 10.575469 19 11.26 19 12 C 19 12.74 18.785594 13.424531 18.433594 14.019531 L 20.089844 15.675781 L 18.675781 17.089844 L 17.019531 15.433594 C 16.424531 15.785594 15.74 16 15 16 C 14.26 16 13.575469 15.785594 12.980469 15.433594 L 11.412109 17.001953 L 9.9980469 15.587891 L 11.566406 14.019531 C 11.214406 13.424531 11 12.74 11 12 C 11 11.26 11.214406 10.575469 11.566406 9.9804688 L 10.087891 8.5019531 L 11.501953 7.0878906 L 12.980469 8.5664062 C 13.575469 8.2144062 14.26 8 15 8 C 15.74 8 16.424531 8.2144062 17.019531 8.5664062 L 18.587891 6.9980469 z M 5 9 L 7 9 L 7 15 L 5 15 L 5 9 z M 15 10 A 2 2 0 0 0 13 12 A 2 2 0 0 0 15 14 A 2 2 0 0 0 17 12 A 2 2 0 0 0 15 10 z" fill="#cf3719"/></svg>
