<svg fill="#cf3719" xmlns="http://www.w3.org/2000/svg"  viewBox="0 0 50 50" width="50px" height="50px"><path d="M 31 2 C 30.449219 2 30 2.449219 30 3 C 30 3.265625 30.105469 3.519531 30.292969 3.707031 L 35.292969 8.707031 L 36.707031 7.292969 L 31.71875 2.304688 C 31.714844 2.300781 31.710938 2.296875 31.707031 2.292969 C 31.519531 2.105469 31.265625 2 31 2 Z M 43 5 C 42.445313 5 41.914063 5.234375 41.535156 5.640625 L 23 23 L 4.671875 41.511719 C 4.246094 41.886719 4 42.429688 4 43 C 4 43.546875 4.226563 44.070313 4.625 44.449219 L 4.625 44.453125 L 7.445313 47.253906 C 7.824219 47.726563 8.394531 48 9 48 C 9.34375 48 9.683594 47.910156 9.984375 47.738281 C 9.984375 47.738281 9.992188 47.734375 9.992188 47.734375 C 10.027344 47.71875 22.554688 41.453125 32 32 C 41.351563 22.660156 47.527344 11.363281 47.683594 11.078125 C 47.890625 10.757813 48 10.382813 48 10 C 48 9.390625 47.722656 8.8125 47.242188 8.429688 L 44.453125 5.625 L 44.449219 5.625 C 44.070313 5.226563 43.546875 5 43 5 Z M 27 6 C 26.449219 6 26 6.449219 26 7 C 26 7.265625 26.105469 7.519531 26.292969 7.707031 L 31.292969 12.707031 L 32.707031 11.292969 L 27.71875 6.304688 C 27.527344 6.109375 27.269531 6 27 6 Z M 23 10 C 22.449219 10 22 10.449219 22 11 C 22 11.269531 22.109375 11.527344 22.300781 11.71875 L 27.292969 16.707031 L 28.707031 15.292969 L 23.707031 10.292969 C 23.519531 10.105469 23.265625 10 23 10 Z M 19 14 C 18.449219 14 18 14.449219 18 15 C 18 15.265625 18.105469 15.519531 18.292969 15.707031 L 23.292969 20.707031 L 24.707031 19.292969 L 19.71875 14.300781 C 19.714844 14.300781 19.710938 14.296875 19.707031 14.292969 C 19.519531 14.105469 19.265625 14 19 14 Z M 15 18 C 14.449219 18 14 18.449219 14 19 C 14 19.265625 14.105469 19.519531 14.292969 19.707031 L 19.292969 24.707031 L 20.707031 23.292969 L 15.71875 18.300781 C 15.527344 18.109375 15.269531 18 15 18 Z M 11 22 C 10.449219 22 10 22.449219 10 23 C 10 23.269531 10.109375 23.527344 10.300781 23.71875 L 15.292969 28.707031 L 16.707031 27.292969 L 11.707031 22.292969 C 11.519531 22.105469 11.265625 22 11 22 Z M 7 26 C 6.449219 26 6 26.449219 6 27 C 6 27.265625 6.105469 27.519531 6.292969 27.707031 L 11.292969 32.707031 L 12.707031 31.292969 L 7.71875 26.300781 C 7.527344 26.109375 7.269531 26 7 26 Z M 3 30 C 2.449219 30 2 30.449219 2 31 C 2 31.269531 2.109375 31.527344 2.304688 31.71875 L 7.292969 36.707031 L 8.707031 35.292969 L 3.707031 30.292969 C 3.519531 30.105469 3.265625 30 3 30 Z"/></svg>