<svg xmlns="http://www.w3.org/2000/svg" width="22.484" height="25" viewBox="0 0 22.484 25"><path d="M14.223,1.986a1.249,1.249,0,0,0-1.23,1.266V4.885L4.62,8.025A2.507,2.507,0,0,0,3,10.364v.383A1.249,1.249,0,0,0,4.249,12H24.235a1.249,1.249,0,0,0,1.249-1.249v-.383a2.507,2.507,0,0,0-1.62-2.34h0l-8.371-3.14V3.253a1.249,1.249,0,0,0-1.269-1.266Zm.02,11.259a1.249,1.249,0,1,0,1.249,1.249A1.249,1.249,0,0,0,14.242,13.246Zm-2.5,3.747a1.249,1.249,0,1,0,1.249,1.249A1.249,1.249,0,0,0,11.744,16.993Zm5,0a1.249,1.249,0,1,0,1.249,1.249A1.249,1.249,0,0,0,16.741,16.993ZM9.246,20.741a1.249,1.249,0,1,0,1.249,1.249A1.249,1.249,0,0,0,9.246,20.741Zm5,0a1.249,1.249,0,1,0,1.249,1.249A1.249,1.249,0,0,0,14.242,20.741Zm5,0a1.249,1.249,0,1,0,1.249,1.249A1.249,1.249,0,0,0,19.239,20.741ZM6.747,24.488A1.249,1.249,0,1,0,8,25.737,1.249,1.249,0,0,0,6.747,24.488Zm5,0a1.249,1.249,0,1,0,1.249,1.249A1.249,1.249,0,0,0,11.744,24.488Zm5,0a1.249,1.249,0,1,0,1.249,1.249A1.249,1.249,0,0,0,16.741,24.488Zm5,0a1.249,1.249,0,1,0,1.249,1.249A1.249,1.249,0,0,0,21.737,24.488Z" transform="translate(-3 -1.986)" fill="#cf3719"/></svg>