<?xml version="1.0" encoding="utf-8"?>
<svg xmlns="http://www.w3.org/2000/svg" viewBox="0 0 24 24" fill="#cf3719"><path d="M 11.5 3 C 10.390625 3 9.355469 3.25 8.53125 3.71875 C 7.707031 4.1875 7 4.964844 7 6 C 7 6.800781 7.425781 7.4375 8 7.90625 C 7.730469 8.035156 7.457031 8.160156 7.21875 8.3125 C 5.957031 9.109375 5 10.214844 5 11.59375 C 5 12.382813 5.476563 13.078125 6.03125 13.5 C 6.089844 13.546875 6.15625 13.582031 6.21875 13.625 C 5.914063 13.699219 5.589844 13.753906 5.3125 13.84375 C 4.421875 14.125 3.667969 14.476563 3.0625 14.96875 C 2.457031 15.460938 2 16.175781 2 17 C 2 18.476563 3.0625 19.726563 4.625 20.59375 C 6.1875 21.460938 8.359375 22 11 22 C 13.574219 22 16.121094 21.734375 18.125 21.1875 C 19.128906 20.914063 19.992188 20.5625 20.6875 20.09375 C 21.382813 19.625 22 18.914063 22 18 C 22 17.175781 21.570313 16.457031 21 15.875 C 20.429688 15.292969 19.707031 14.792969 18.8125 14.375 C 18.347656 14.15625 17.851563 13.953125 17.3125 13.78125 C 17.421875 13.710938 17.523438 13.640625 17.625 13.5625 C 18.191406 13.128906 18.640625 12.609375 18.90625 12 C 19.167969 11.398438 19.195313 10.648438 18.90625 10 C 18.902344 9.992188 18.910156 9.976563 18.90625 9.96875 C 18.492188 9.019531 17.597656 8.351563 16.4375 7.84375 C 16.003906 7.652344 15.515625 7.507813 15 7.375 C 15.234375 7.039063 15.40625 6.65625 15.4375 6.21875 C 15.480469 5.59375 15.242188 4.949219 14.8125 4.40625 C 14.808594 4.398438 14.785156 4.414063 14.78125 4.40625 C 14.777344 4.402344 14.785156 4.378906 14.78125 4.375 C 14.0625 3.402344 12.851563 3 11.5 3 Z M 11.5 5 C 12.535156 5 12.902344 5.195313 13.1875 5.59375 L 13.21875 5.59375 L 13.21875 5.625 C 13.421875 5.878906 13.441406 5.988281 13.4375 6.0625 C 13.433594 6.136719 13.394531 6.261719 13.25 6.40625 C 12.957031 6.699219 12.203125 7 11.5 7 C 10.707031 7 9.980469 6.789063 9.53125 6.53125 C 9.082031 6.273438 9 6.066406 9 6 C 9 5.933594 9.082031 5.726563 9.53125 5.46875 C 9.980469 5.210938 10.707031 5 11.5 5 Z M 12 9 C 13.527344 9 14.78125 9.273438 15.65625 9.65625 C 16.53125 10.039063 16.96875 10.550781 17.0625 10.78125 L 17.09375 10.8125 C 17.136719 10.90625 17.152344 10.984375 17.0625 11.1875 C 16.972656 11.390625 16.734375 11.691406 16.375 11.96875 C 15.65625 12.523438 14.4375 13 13 13 C 11.421875 13 9.722656 12.8125 8.53125 12.46875 C 7.9375 12.296875 7.492188 12.09375 7.25 11.90625 C 7.007813 11.71875 7 11.65625 7 11.59375 C 7 11.273438 7.367188 10.578125 8.28125 10 C 9.195313 9.421875 10.542969 9 12 9 Z M 12 15 C 14.359375 15 16.472656 15.5 17.9375 16.1875 C 18.667969 16.53125 19.257813 16.9375 19.59375 17.28125 C 19.929688 17.625 20 17.875 20 18 C 20 18.035156 19.992188 18.167969 19.59375 18.4375 C 19.195313 18.707031 18.496094 19.011719 17.625 19.25 C 15.878906 19.726563 13.425781 20 11 20 C 8.640625 20 6.8125 19.5 5.625 18.84375 C 4.4375 18.1875 4 17.421875 4 17 C 4 16.875 4.042969 16.746094 4.34375 16.5 C 4.644531 16.253906 5.203125 15.980469 5.9375 15.75 C 7.40625 15.285156 9.574219 15 12 15 Z" fill="#cf3719"/></svg>
