<?xml version="1.0"?><svg fill="#cf3719" xmlns="http://www.w3.org/2000/svg"  viewBox="0 0 30 30" width="30px" height="30px">    <path d="M 2.984375 7.9863281 A 1.0001 1.0001 0 0 0 2 9 L 2 26 A 1.0001 1.0001 0 1 0 4 26 L 4 25 L 26 25 L 26 26 A 1.0001 1.0001 0 1 0 28 26 L 28 21 A 1.0001 1.0001 0 0 0 26.984375 19.986328 A 1.0001 1.0001 0 0 0 26.839844 20 L 4 20 L 4 9 A 1.0001 1.0001 0 0 0 2.984375 7.9863281 z M 8.5 13 A 2.5 2.5 0 0 0 6 15.5 A 2.5 2.5 0 0 0 8.5 18 A 2.5 2.5 0 0 0 11 15.5 A 2.5 2.5 0 0 0 8.5 13 z M 13 13 L 13 18 L 27 18 L 27 16 C 27 14.343 25.657 13 24 13 L 13 13 z"/></svg>