<svg fill="#cf3719" xmlns="http://www.w3.org/2000/svg"  viewBox="0 0 50 50" width="50px" height="50px"><path d="M 22 0 C 20.347656 0 19 1.347656 19 3 L 19 5 C 19 6.160156 19.839844 7 21 7 C 21 7.640625 20.640625 8.101563 20 8.21875 C 15.296875 9.25 12 13.3125 12 18.09375 L 12 20.125 C 12 21.429688 12.835938 22.554688 14 22.96875 L 14 37.0625 C 12.835938 37.476563 12 38.601563 12 39.90625 L 12 45 C 12 47.757813 14.242188 50 17 50 L 33 50 C 35.757813 50 38 47.757813 38 45 L 38 39.90625 C 38 38.601563 37.164063 37.476563 36 37.0625 L 36 37 L 16 37 L 16 35 L 36 35 L 36 25 L 16 25 L 16 23 L 36 23 L 36 22.96875 C 37.164063 22.554688 38 21.429688 38 20.125 L 38 18.09375 C 38 13.3125 34.707031 9.257813 29.96875 8.21875 C 29.363281 8.109375 29 7.640625 29 7 C 30.160156 7 31 6.160156 31 5 L 31 3 C 31 1.347656 29.652344 0 28 0 Z"/></svg>