<svg xmlns="http://www.w3.org/2000/svg" width="34.636" height="25" viewBox="0 0 34.636 25"><path d="M19.346,5A25.944,25.944,0,0,0,2.912,10.838a2.444,2.444,0,0,0-.163,3.616,2.414,2.414,0,0,0,3.148.241,22.411,22.411,0,0,1,26.9,0,2.412,2.412,0,0,0,3.148-.244,2.445,2.445,0,0,0-.163-3.616A25.951,25.951,0,0,0,19.346,5Zm0,8.684a18.91,18.91,0,0,0-9.983,2.842,2.6,2.6,0,1,0,2.758,4.4,13.841,13.841,0,0,1,14.477.017,2.577,2.577,0,0,0,3.188-.336l.047-.047a2.576,2.576,0,0,0-.461-4.013A18.94,18.94,0,0,0,19.346,13.684Zm0,8.684a10.282,10.282,0,0,0-4.4.984,1.746,1.746,0,0,0-.488,2.812l3.094,3.094a2.536,2.536,0,0,0,3.589,0l3.094-3.094a1.746,1.746,0,0,0-.488-2.812A10.282,10.282,0,0,0,19.346,22.367Z" transform="translate(-2.028 -5)" fill="#cf3719"/></svg>