<svg width="585" height="354" xmlns="http://www.w3.org/2000/svg" version="1.1" xml:space="preserve">
 <g>
  <title>Layer 1</title>
  <g id="g1"/>
  <g class="st3" enable-background="new" id="svg_5"/>
  <path id="path1-7" class="st1" d="m278.7,320.46667l-1.2,2.7l5.4,20.8l-10,9.5l-21.6,-5.3l-20.8,-20.9l-39,8.9l-17,-29.4l28.1,-27.6l-4.4,-11.9l-2.3,-9.1l-2.4,-12.6l-38.2,-11.3l0.1,-33.3l38.5,-10.9l3,-14.7l2.5,-8.5l4.2,-10.3l-27.4,-28.3l17.6,-29l38.4,9.5l9,-10.2l8,-7.1l9.2,-7.7l-9.3,-37.4l30,-16.5l28.4,26.8l11.9,-4.1l10.9,-2.9l12.7,-2.3l11.4,-37.2l34.8,0l10.8,37.1l10.3,1.9l11.5,3.1l13.1,4.5l29.1,-26.6l29.8,16.5l-10.2,37.5l7.7,6.3l9,8.5l8.9,10.2l39,-8.7l8.7,13l8.6,15.7l-28.3,27.8l3.7,10l3,11.2l2.4,12.7l38.1,10.8l0.9,14.1l-0.7,19.3l-38.4,10.7l-2.2,10.7l-3.4,12.4l-4.3,11.1l27.7,27.5l-7.6,13.6l-10.3,16l-38.4,-9.5l-10.4,11.6l-10.7,9.2l-23.1,5.6l-9.5,-9.7l5.2,-23.6l14.5,-13.6l7.9,-9.5l10.8,-16.2l6.6,-14l6.1,-18.8l3.8,-20.1l-0.2,-20.3l-2.9,-19.6l-3.1,-11.5l-5.8,-14.6l-7,-13.4l-8.8,-13.1l-11.2,-12.6l-12.1,-10.4l-9.7,-6.8l-15.6,-8.7l-15.1,-6.6l-18.5,-4.9l-15.2,-2.2l-13.4,-0.6l-12.2,0.8l-16.6,2.3l-14.5,3.8l-14.6,6l-12.8,6.4l-10.4,6.5l-9.2,7.1c0,0 -7.7,6.4 -7.7,6.5c-0.1,0.1 -11.4,12.9 -11.4,12.9l-4,5.2l-11.3,18l-5.1,11l-3.6,10.7l-2.5,9.7l-2.2,12l-1.2,9.9l0,16.3l1.5,12.7l3.4,14.1l5.3,15l6.3,12.7l5.8,9.2l6.9,9.7l7.1,8.1l5.2,5.2l4.3,4.1l1.9,1.4z" fill="#ffffff"/>
 </g>

</svg>